<?xml version="1.0" encoding="utf-8"?>
<svg version="1.1" x="0px" y="0px" viewBox="0 0 100 100" enable-background="new 0 0 100 100" xmlns="http://www.w3.org/2000/svg">
  <path fill="param(fill) #000" stroke="param (outline) #000" stroke-width="param (outline-width) 1" d="M 54.869 21.041 C 58.069 24.241 67.095 34.021 67.272 34.242 C 76.718 46.052 83.352 41.308 75.472 31.637 C 75.293 31.417 55.5 9.965 55.5 9.965 C 52.4 6.865 50.198 7.264 47.298 10.364 C 47.298 10.364 26.626 31.736 26.026 32.436 C 21.215 37.581 22.892 48.267 36.326 32.91 C 36.885 32.271 47.93 21.207 47.93 21.207 L 47.93 64.715 C 47.93 69.015 47.166 75.179 51.466 75.179 C 55.766 75.179 55.268 69.282 55.268 64.982 L 54.869 21.041 Z"/>
</svg>